<svg version="1.1" xmlns="http://www.w3.org/2000/svg" xmlns:xlink="http://www.w3.org/1999/xlink" width="1001" height="1001" fill="#D40E0E" viewBox="0,0,1001,1001">
  <path d="M257,396 C257,396,256,382,256,382 C256,382,257,344,257,344 C257,344,258,302,258,302 C258,302,265,238,265,238 C265,238,285,196,285,196 C285,196,283,206,283,206 C283,206,274,254,274,254 C274,254,267,295,267,295 C267,295,265,302,265,302 C265,302,261,335,261,335 C261,335,259,367,259,367 C259,367,257,396,257,396Z M91,541 C91,541,97,579,97,579 C97,579,85,666,85,666 C85,666,77,651,77,651 C77,651,80,651,80,651 C80,651,82,649,82,649 C82,649,82,650,82,650 C82,650,85,650,85,650 C85,650,85,650,85,650 C85,650,90,565,90,565 C90,565,90,553,90,553 C90,553,91,541,91,541Z M315,619 C315,619,321,629,321,629 C321,629,317,631,317,631 C317,631,268,570,268,570 C268,570,241,546,241,546 C241,546,214,520,214,520 C214,520,175,459,175,459 C175,459,167,422,167,422 C167,422,171,428,171,428 C171,428,173,434,173,434 C173,434,201,473,201,473 C201,473,228,514,228,514 C228,514,258,554,258,554 C258,554,267,564,267,564 C267,564,287,593,287,593 C287,593,310,622,310,622 C310,622,312,622,312,622 C312,622,313,619,313,619 C313,619,315,619,315,619Z M321,400 C321,400,307,439,307,439 C307,439,288,501,288,501 C288,501,287,527,287,527 C287,527,285,521,285,521 C285,521,283,515,283,515 C283,515,277,501,277,501 C277,501,299,450,299,450 C299,450,321,400,321,400Z M233,354 C233,354,231,348,231,348 C231,348,233,354,233,354 C233,354,233,357,233,357 C233,357,233,354,233,354Z M113,336 C113,336,113,336,113,336 C113,336,113,337,113,337 C113,337,113,336,113,336Z M527,192 C527,192,525,201,525,201 C525,201,525,180,525,180 C525,180,527,192,527,192Z M313,112 C313,112,313,113,313,113 C313,113,313,112,313,112 C313,112,313,112,313,112Z M492,452 C492,452,493,466,493,466 C493,466,493,466,493,466 C493,466,489,502,489,502 C489,502,482,541,482,541 C482,541,473,577,473,577 C473,577,461,615,461,615 C461,615,436,686,436,686 C436,686,433,686,433,686 C433,686,435,682,435,682 C435,682,446,646,446,646 C446,646,455,607,455,607 C455,607,465,567,465,567 C465,567,476,528,476,528 C476,528,486,485,486,485 C486,485,491,462,491,462 C491,462,492,452,492,452Z M382,80 C382,80,407,90,407,90 C407,90,422,89,422,89 C422,89,420,82,420,82 C420,82,449,79,449,79 C449,79,441,83,441,83 C441,83,433,86,433,86 C433,86,427,88,427,88 C427,88,425,89,425,89 C425,89,418,92,418,92 C418,92,411,95,411,95 C411,95,402,98,402,98 C402,98,392,90,392,90 C392,90,382,80,382,80Z M17,399 C17,399,19,405,19,405 C19,405,2,378,2,378 C2,378,4,307,4,307 C4,307,17,399,17,399Z M73,637 C73,637,75,647,75,647 C75,647,44,590,44,590 C44,590,46,534,46,534 C46,534,49,543,49,543 C49,543,50,551,50,551 C50,551,60,589,60,589 C60,589,70,627,70,627 C70,627,73,637,73,637Z M158,104 C158,104,197,99,197,99 C197,99,197,102,197,102 C197,102,196,104,196,104 C196,104,158,104,158,104Z M516,151 C516,151,514,193,514,193 C514,193,514,218,514,218 C514,218,511,228,511,228 C511,228,515,239,515,239 C515,239,512,277,512,277 C512,277,504,316,504,316 C504,316,500,357,500,357 C500,357,493,390,493,390 C493,390,489,406,489,406 C489,406,487,417,487,417 C487,417,487,429,487,429 C487,429,476,468,476,468 C476,468,470,510,470,510 C470,510,459,551,459,551 C459,551,450,595,450,595 C450,595,434,645,434,645 C434,645,433,598,433,598 C433,598,429,568,429,568 C429,568,428,532,428,532 C428,532,430,509,430,509 C430,509,430,489,430,489 C430,489,421,425,421,425 C421,425,418,387,418,387 C418,387,411,325,411,325 C411,325,413,320,413,320 C413,320,399,255,399,255 C399,255,400,244,400,244 C400,244,395,242,395,242 C395,242,390,252,390,252 C390,252,390,254,390,254 C390,254,370,290,370,290 C370,290,342,328,342,328 C342,328,302,412,302,412 C302,412,288,456,288,456 C288,456,270,500,270,500 C270,500,267,501,267,501 C267,501,270,502,270,502 C270,502,280,541,280,541 C280,541,282,548,282,548 C282,548,288,552,288,552 C288,552,295,582,295,582 C295,582,301,591,301,591 C301,591,296,583,296,583 C296,583,283,573,283,573 C283,573,257,533,257,533 C257,533,227,491,227,491 C227,491,195,452,195,452 C195,452,169,406,169,406 C169,406,165,400,165,400 C165,400,159,396,159,396 C159,396,157,386,157,386 C157,386,133,346,133,346 C133,346,117,320,117,320 C117,320,112,318,112,318 C112,318,110,316,110,316 C110,316,107,308,107,308 C107,308,98,373,98,373 C98,373,97,391,97,391 C97,391,95,401,95,401 C95,401,95,411,95,411 C95,411,87,447,87,447 C87,447,86,489,86,489 C86,489,83,507,83,507 C83,507,84,519,84,519 C84,519,79,568,79,568 C79,568,77,618,77,618 C77,618,62,568,62,568 C62,568,53,515,53,515 C53,515,49,501,49,501 C49,501,45,487,45,487 C45,487,34,428,34,428 C34,428,34,421,34,421 C34,421,30,416,30,416 C30,416,22,375,22,375 C22,375,19,329,19,329 C19,329,13,290,13,290 C13,290,8,249,8,249 C8,249,2,207,2,207 C2,207,3,184,3,184 C3,184,0,179,0,179 C0,179,3,130,3,130 C3,130,14,83,14,83 C14,83,13,76,13,76 C13,76,31,82,31,82 C31,82,38,86,38,86 C38,86,46,87,46,87 C46,87,95,108,95,108 C95,108,110,114,110,114 C110,114,188,113,188,113 C188,113,185,136,185,136 C185,136,188,144,188,144 C188,144,188,150,188,150 C188,150,186,161,186,161 C186,161,188,183,188,183 C188,183,195,235,195,235 C195,235,202,279,202,279 C202,279,207,299,207,299 C207,299,225,356,225,356 C225,356,233,383,233,383 C233,383,233,395,233,395 C233,395,238,406,238,406 C238,406,236,411,236,411 C236,411,243,423,243,423 C243,423,246,437,246,437 C246,437,253,460,253,460 C253,460,259,461,259,461 C259,461,261,460,261,460 C261,460,262,460,262,460 C262,460,265,459,265,459 C265,459,263,402,263,402 C263,402,271,354,271,354 C271,354,275,304,275,304 C275,304,275,296,275,296 C275,296,284,251,284,251 C284,251,291,204,291,204 C291,204,307,159,307,159 C307,159,320,113,320,113 C320,113,346,71,346,71 C346,71,348,69,348,69 C348,69,349,67,349,67 C349,67,349,65,349,65 C349,65,354,70,354,70 C354,70,362,72,362,72 C362,72,399,111,399,111 C399,111,423,98,423,98 C423,98,427,99,427,99 C427,99,426,96,426,96 C426,96,430,100,430,100 C430,100,466,81,466,81 C466,81,476,82,476,82 C476,82,482,74,482,74 C482,74,502,69,502,69 C502,69,503,75,503,75 C503,75,506,77,506,77 C506,77,506,79,506,79 C506,79,508,88,508,88 C508,88,508,121,508,121 C508,121,514,131,514,131 C514,131,516,151,516,151Z"/>
</svg>